<?xml version="1.0" encoding="UTF-8" standalone="no"?>
<!-- Created with Inkscape (http://www.inkscape.org/) -->

<svg
   xmlns:dc="http://purl.org/dc/elements/1.1/"
   xmlns:cc="http://creativecommons.org/ns#"
   xmlns:rdf="http://www.w3.org/1999/02/22-rdf-syntax-ns#"
   xmlns:svg="http://www.w3.org/2000/svg"
   xmlns="http://www.w3.org/2000/svg"
   xmlns:sodipodi="http://sodipodi.sourceforge.net/DTD/sodipodi-0.dtd"
   xmlns:inkscape="http://www.inkscape.org/namespaces/inkscape"
   version="1.1"
   id="svg2"
   xml:space="preserve"
   width="1122.52"
   height="793.70001"
   viewBox="0 0 1122.52 793.70001"
   sodipodi:docname="logo.svg"
   inkscape:version="0.92.3 (2405546, 2018-03-11)"><metadata
     id="metadata8"><rdf:RDF><cc:Work
         rdf:about=""><dc:format>image/svg+xml</dc:format><dc:type
           rdf:resource="http://purl.org/dc/dcmitype/StillImage" /><dc:title /></cc:Work></rdf:RDF></metadata><defs
     id="defs6"><clipPath
       clipPathUnits="userSpaceOnUse"
       id="clipPath18"><path
         d="M 0,595.275 H 841.89 V 0 H 0 Z"
         id="path16"
         inkscape:connector-curvature="0" /></clipPath></defs><sodipodi:namedview
     pagecolor="#ffffff"
     bordercolor="#666666"
     borderopacity="1"
     objecttolerance="10"
     gridtolerance="10"
     guidetolerance="10"
     inkscape:pageopacity="0"
     inkscape:pageshadow="2"
     inkscape:window-width="1366"
     inkscape:window-height="703"
     id="namedview4"
     showgrid="false"
     inkscape:zoom="0.63752046"
     inkscape:cx="561.26001"
     inkscape:cy="396.85001"
     inkscape:window-x="0"
     inkscape:window-y="0"
     inkscape:window-maximized="1"
     inkscape:current-layer="g10" /><g
     id="g10"
     inkscape:groupmode="layer"
     inkscape:label="ARKTUR TOUR OPERATOR &amp; DMC-01"
     transform="matrix(1.3333333,0,0,-1.3333333,0,793.7)"><g
   id="g12"
   transform="matrix(3.3729727,0,0,3.5781139,-1001.4225,-745.5669)"><g
     id="g14"
     clip-path="url(#clipPath18)"><g
       id="g20"
       transform="translate(411.6475,253.4941)"><path
         d="m 0,0 c -41.037,4.273 -72.725,29.25 -72.725,59.301 0,30.051 31.688,55.094 72.725,59.434 v -5.675 c -36.563,0 -66.381,-24.309 -66.381,-54.193 C -66.381,28.982 -36.563,4.674 0,4.674 Z m 12.655,119.404 c 47.013,0 85.378,-27.013 85.378,-60.103 C 98.033,26.244 59.668,-0.668 12.655,-0.668 8.38,-0.668 4.14,-0.434 0,0 v 4.674 c 36.596,0 66.413,24.308 66.413,54.193 0,29.884 -29.817,54.193 -66.413,54.193 v 5.675 c 4.14,0.435 8.38,0.669 12.655,0.669"
         style="fill:#a7a9ac;fill-opacity:1;fill-rule:evenodd;stroke:none"
         id="path22"
         inkscape:connector-curvature="0" /></g><path
       d="m 297.118,264.955 h 249.259 v -3.707 H 297.118 Z"
       style="fill:#00488b;fill-opacity:1;fill-rule:evenodd;stroke:none"
       id="path24"
       inkscape:connector-curvature="0" /><g
       id="g26"
       transform="translate(390.5781,297.377)"><path
         d="M 0,0 V 4.676 C -1.136,4.374 -2.472,4.207 -4.008,4.207 H -4.574 -5.343 V 17.73 c 1.569,0.268 2.804,0.401 3.74,0.401 0.567,0 1.069,0 1.603,-0.1 v 1.904 c -0.835,0 -1.77,0.066 -2.772,0.066 h -11.853 v -0.868 h 1.235 c 1.236,0 2.17,-0.367 2.771,-1.102 0.468,-0.501 0.67,-1.736 0.67,-3.806 V -6.744 c 0,-1.803 -0.136,-2.972 -0.503,-3.506 -0.567,-0.869 -1.535,-1.336 -2.938,-1.336 h -1.235 v -0.868 h 13.957 v 0.868 h -1.303 c -1.168,0 -2.103,0.367 -2.703,1.035 -0.469,0.5 -0.669,1.803 -0.669,3.807 v 9.449 c 0.235,-0.033 0.501,-0.033 0.701,-0.033 h 0.667 c 0.536,0 1.203,0 2.004,0.033 z m 105.881,19.133 v 0 0.868 h 11.551 v -0.868 h -1.235 c -1.301,0 -2.269,-0.568 -2.937,-1.67 -0.367,-0.434 -0.534,-1.636 -0.534,-3.439 V 0.902 c 0,-3.272 -0.301,-5.81 -0.968,-7.613 -0.602,-1.769 -1.904,-3.34 -3.809,-4.607 -1.902,-1.303 -4.472,-1.905 -7.712,-1.905 -3.54,0 -6.21,0.602 -8.081,1.837 -1.802,1.236 -3.138,2.906 -3.84,4.942 -0.534,1.436 -0.767,4.074 -0.767,8.014 v 12.655 c 0,2.004 -0.334,3.305 -0.834,3.906 -0.569,0.635 -1.437,1.002 -2.672,1.002 h -1.236 v 0.868 h 14.024 v -0.868 h -1.235 c -1.369,0 -2.304,-0.467 -2.872,-1.302 -0.4,-0.567 -0.601,-1.804 -0.601,-3.606 V 0.101 c 0,-1.236 0.102,-2.671 0.334,-4.341 0.233,-1.637 0.635,-2.871 1.236,-3.807 0.634,-0.901 1.502,-1.637 2.637,-2.236 1.136,-0.569 2.572,-0.903 4.208,-0.903 2.104,0 4.007,0.468 5.676,1.403 1.704,0.935 2.805,2.103 3.44,3.54 0.601,1.435 0.935,3.906 0.935,7.379 v 13.089 c 0,2.07 -0.234,3.305 -0.669,3.806 -0.634,0.735 -1.569,1.102 -2.805,1.102 z m -24.943,0.868 v 0 l 0.367,-7.612 H 80.37 c -0.134,1.336 -0.334,2.269 -0.701,2.871 -0.468,0.934 -1.135,1.603 -1.97,2.004 -0.802,0.466 -1.904,0.668 -3.239,0.668 H 69.885 V -6.844 c 0,-2.004 0.267,-3.24 0.668,-3.707 0.635,-0.668 1.537,-1.035 2.771,-1.035 h 1.136 v -0.868 H 60.735 v 0.868 h 1.137 c 1.369,0 2.37,0.4 2.939,1.235 0.299,0.501 0.5,1.703 0.5,3.507 v 24.776 h -3.907 c -1.502,0 -2.57,-0.101 -3.238,-0.301 C 57.33,17.33 56.629,16.695 56.062,15.895 55.427,15.026 55.127,13.824 54.96,12.389 h -0.867 l 0.367,7.612 z M 31.887,5.543 v 0 l 11.922,-11.92 c 1.968,-1.971 3.671,-3.307 5.042,-3.974 1.401,-0.701 2.77,-1.135 4.172,-1.235 v -0.868 H 37.598 v 0.868 c 0.934,0 1.602,0.167 2.004,0.467 0.366,0.301 0.566,0.668 0.566,1.035 0,0.4 -0.066,0.769 -0.2,1.035 -0.167,0.301 -0.668,0.869 -1.502,1.67 L 27.313,3.74 V -6.744 c 0,-1.604 0.1,-2.738 0.301,-3.239 0.166,-0.368 0.5,-0.735 1.034,-1.036 0.668,-0.367 1.37,-0.567 2.138,-0.567 h 1.101 v -0.868 H 18.098 v 0.868 h 1.134 c 1.335,0 2.304,0.4 2.939,1.202 0.334,0.501 0.567,1.736 0.567,3.64 v 20.969 c 0,1.67 -0.099,2.738 -0.333,3.305 -0.135,0.367 -0.502,0.736 -0.969,0.968 -0.701,0.435 -1.435,0.635 -2.204,0.635 h -1.134 v 0.868 h 13.789 v -0.868 h -1.101 c -0.768,0 -1.47,-0.2 -2.138,-0.568 C 28.114,18.298 27.78,17.897 27.614,17.363 27.413,16.93 27.313,15.827 27.313,14.225 V 4.308 c 0.301,0.299 1.436,1.335 3.273,3.038 4.74,4.307 7.579,7.246 8.547,8.681 0.401,0.635 0.668,1.203 0.668,1.703 0,0.368 -0.199,0.668 -0.501,0.936 -0.367,0.3 -0.935,0.467 -1.702,0.467 h -0.769 v 0.868 h 11.92 V 19.133 C 48.016,19.066 47.415,18.966 46.846,18.832 46.279,18.666 45.577,18.298 44.742,17.797 43.908,17.264 42.873,16.495 41.638,15.359 41.304,15.06 39.7,13.424 36.829,10.485 Z m 101.474,14.392 c -0.869,0 -1.736,0.066 -2.773,0.066 H 118.77 v -0.868 h 1.235 c 1.201,0 2.137,-0.367 2.77,-1.102 0.468,-0.501 0.668,-1.736 0.668,-3.806 V -6.744 c 0,-1.803 -0.167,-2.972 -0.534,-3.506 -0.567,-0.869 -1.536,-1.336 -2.904,-1.336 h -1.235 v -0.868 h 13.923 v 0.868 h -1.302 c -1.202,0 -2.104,0.367 -2.705,1.035 -0.467,0.5 -0.668,1.803 -0.668,3.807 v 9.449 c 0.267,-0.033 0.501,-0.033 0.702,-0.033 h 0.667 c 0.534,0 1.201,0 2.004,0.033 L 133.361,0 v 4.676 c -1.17,-0.302 -2.471,-0.469 -4.007,-0.469 h -0.568 -0.768 V 17.73 c 1.603,0.268 2.837,0.401 3.739,0.401 0.568,0 1.102,0 1.604,-0.1 z M 17.696,-12.454 v 0 H 9.048 L 0,0 v 4.676 c 1.168,0.366 2.203,0.834 2.972,1.535 1.602,1.336 2.37,3.038 2.37,5.109 0,2.037 -0.635,3.706 -1.904,4.909 C 2.504,17.163 1.368,17.797 0,18.031 v 1.904 c 2.036,-0.101 3.706,-0.334 4.841,-0.702 1.637,-0.534 3.006,-1.436 4.141,-2.771 1.203,-1.335 1.77,-2.939 1.77,-4.842 0,-1.97 -0.668,-3.706 -1.971,-5.208 C 7.445,4.976 5.442,3.939 2.705,3.34 l 6.743,-9.317 c 1.503,-2.169 2.84,-3.539 3.908,-4.273 1.135,-0.668 2.57,-1.136 4.34,-1.336 z M 133.361,0 v 4.676 c 1.168,0.366 2.203,0.834 2.971,1.535 1.604,1.336 2.37,3.038 2.37,5.109 0,2.037 -0.599,3.706 -1.901,4.909 -0.904,0.934 -2.037,1.568 -3.44,1.802 v 1.904 c 2.069,-0.101 3.707,-0.334 4.841,-0.702 1.636,-0.534 3.038,-1.436 4.173,-2.771 1.136,-1.335 1.736,-2.939 1.736,-4.842 0,-1.97 -0.667,-3.706 -1.968,-5.208 -1.337,-1.436 -3.339,-2.473 -6.045,-3.072 l 6.711,-9.317 c 1.504,-2.169 2.839,-3.539 3.941,-4.273 1.103,-0.668 2.571,-1.136 4.308,-1.336 v -0.868 h -8.649 z"
         style="fill:#00488b;fill-opacity:1;fill-rule:evenodd;stroke:none"
         id="path28"
         inkscape:connector-curvature="0" /></g><g
       id="g30"
       transform="translate(341.5947,299.0801)"><path
         d="M 0,0 V 5.543 H -15.46 L 0,40.202 V 54.359 L -27.247,-6.344 c -3.44,-7.813 -6.377,-12.956 -8.747,-15.427 -2.304,-2.47 -5.343,-3.973 -9.017,-4.541 v -2.771 h 34.025 v 2.771 c -5.376,0.435 -8.714,1.001 -10.05,1.804 -2.304,1.303 -3.506,3.405 -3.506,6.278 0,2.169 0.734,4.941 2.136,8.247 L -18.098,0 Z M 17.996,0 H 0 V 5.543 H 15.426 L 0.2,40.77 0,40.202 v 14.157 l 9.382,20.87 h 1.435 l 36.83,-83.844 c 3.54,-7.947 6.412,-12.955 8.681,-14.959 1.703,-1.602 4.174,-2.471 7.247,-2.738 v -2.771 H 14.091 v 2.771 h 2.069 c 3.975,0 6.744,0.568 8.315,1.67 1.135,0.802 1.703,1.904 1.703,3.439 0,0.869 -0.134,1.803 -0.468,2.771 -0.1,0.468 -0.869,2.305 -2.236,5.677 z"
         style="fill:#00488b;fill-opacity:1;fill-rule:evenodd;stroke:none"
         id="path32"
         inkscape:connector-curvature="0" /></g><g
       id="g34"
       transform="translate(385.2686,299.0137)"><path
         d="m 0,0 v -10.484 c 0,0 0,-1.971 1.402,-2.538 1.337,-0.601 3.24,-0.3 3.24,-0.333 l 0.033,-0.903 -13.79,-0.033 0.066,0.868 c 1.17,0.101 1.403,-0.167 2.772,0.267 1.336,0.334 1.736,1.435 1.736,2.672 v 21.236 z"
         style="fill:#ffffff;fill-opacity:1;fill-rule:evenodd;stroke:none"
         id="path36"
         inkscape:connector-curvature="0" /></g></g></g><text
   transform="scale(0.97091081,-1.0299607)"
   style="font-variant:normal;font-weight:bold;font-stretch:normal;font-size:76.4286499px;font-family:'Arno Pro';-inkscape-font-specification:ArnoPro-Bold;writing-mode:lr-tb;fill:#00488b;fill-opacity:1;fill-rule:nonzero;stroke:none;stroke-width:3.4740293"
   id="text42"
   x="207.28273"
   y="-98.265045"><tspan
     x="207.28273 248.40134 287.83853 327.65784 356.39502 369.92288 428.16147 468.28659 502.06799 529.888 562.98163 586.36877 625.88245"
     y="-98.265045"
     sodipodi:role="line"
     id="tspan38"
     style="stroke-width:3.4740293">Tour Operator</tspan><tspan
     x="345.31284 400.8765 465.38232"
     y="-6.5506897"
     sodipodi:role="line"
     id="tspan40"
     style="stroke-width:3.4740293">DMC</tspan></text>

</g></svg>